{
 "cells": [
  {
   "cell_type": "code",
   "execution_count": 58,
   "metadata": {},
   "outputs": [],
   "source": [
    "import subprocess\n",
    "import pickle\n",
    "import numpy as np\n",
    "import os\n",
    "import glob\n",
    "import cv2\n",
    "import shutil\n",
    "import pandas as pd\n",
    "import os\n",
    "\n",
    "thumos14_cls_name = ['BK',\n",
    "                     'BaseballPitch',\n",
    "                     'BasketballDunk',\n",
    "                     'Billiards',\n",
    "                     'CleanAndJerk',\n",
    "                     'CliffDiving',\n",
    "                     'CricketBowling',\n",
    "                     'CricketShot',\n",
    "                     'Diving',\n",
    "                     'FrisbeeCatch',\n",
    "                     'GolfSwing',\n",
    "                     'HammerThrow',\n",
    "                     'HighJump',\n",
    "                     'JavelinThrow',\n",
    "                     'LongJump',\n",
    "                     'PoleVault',\n",
    "                     'Shotput',\n",
    "                     'SoccerPenalty',\n",
    "                     'TennisSwing',\n",
    "                     'ThrowDiscus',\n",
    "                     'VolleyballSpiking']\n",
    "\n",
    "\n",
    "tvseries_cls_name = ['BK',\n",
    "                     'Pick something up',\n",
    "                     'Point',\n",
    "                     'Drink',\n",
    "                     'Stand up',\n",
    "                     'Run',\n",
    "                     'Sit down',\n",
    "                     'Read',\n",
    "                     'Smoke',\n",
    "                     'Drive car',\n",
    "                     'Open door',\n",
    "                     'Give something',\n",
    "                     'Use computer',\n",
    "                     'Write',\n",
    "                     'Close door',\n",
    "                     'Go down stairway',\n",
    "                     'Go up stairway',\n",
    "                     'Throw something',\n",
    "                     'Get in/out of car',\n",
    "                     'Hang up phone',\n",
    "                     'Eat',\n",
    "                     'Answer phone',\n",
    "                     'Clap',\n",
    "                     'Dress up',\n",
    "                     'Undress',\n",
    "                     'Kiss',\n",
    "                     'Fall/trip',\n",
    "                     'Wave',\n",
    "                     'Pour',\n",
    "                     'Punch',\n",
    "                     'Fire weapon']\n"
   ]
  },
  {
   "cell_type": "code",
   "execution_count": 59,
   "metadata": {},
   "outputs": [],
   "source": [
    "def extract_frames(video_path, dset):\n",
    "    #video_path : '/home/muser/tech/data_samples/thumos_vid/video_test_0000026'\n",
    "    # img_path = '/home/muser/techQmark/result_vid/' + video_name + '/imgs'\n",
    "    img_path = '/opt/ml/demo_video_making/demo_vid/extracted_frames/' + video_name + '/imgs'\n",
    "    if dset == 'thumos14':\n",
    "        subprocess.call('ffmpeg -i {} -r 24/1 -qscale:v 2 {}/%06d.png'.format(video_path+'.mp4', img_path), shell=True)\n",
    "    else:\n",
    "        subprocess.call('ffmpeg -i {} -r 24/1 -qscale:v 2 {}/%06d.png'.format(video_path+'.mkv', img_path), shell=True)"
   ]
  },
  {
   "cell_type": "code",
   "execution_count": 79,
   "metadata": {},
   "outputs": [],
   "source": [
    "def put_text_for_obs(image_name, info, dset, resize=False):\n",
    "    # info : [frame_num, prob, cls, label]\n",
    "    image = cv2.imread(image_name)\n",
    "    [height, width] = image.shape[:2]\n",
    "    font_size = 1\n",
    "    loc_w, loc_h = 0, 0\n",
    "    if dset == 'thumos14':\n",
    "        loc_w, loc_h = 5, 10\n",
    "        font_size = 0.4\n",
    "        font_thick = 1\n",
    "        step = 20\n",
    "    else:\n",
    "        loc_w, loc_h = 5, 30\n",
    "        font_size = 1.\n",
    "        font_thick = 2\n",
    "        step = 30\n",
    "    cv2.putText(image, \"Observation\", (loc_w, loc_h), cv2.FONT_HERSHEY_DUPLEX, font_size, (255, 0, 0), font_thick)\n",
    "    cv2.putText(image, \"PRED: {} ({:.2f})\".format(info[2], info[1]), (loc_w, loc_h+step), cv2.FONT_HERSHEY_DUPLEX, font_size, (255, 0, 0), font_thick)\n",
    "    cv2.putText(image, \"GT: {}\".format(info[3]), (loc_w, loc_h + 2*step), cv2.FONT_HERSHEY_DUPLEX, font_size, (0, 0, 255), font_thick)\n",
    "    cv2.imwrite(image_name, image)"
   ]
  },
  {
   "cell_type": "code",
   "execution_count": 78,
   "metadata": {},
   "outputs": [],
   "source": [
    "def put_text(image_name, info, dset, resize=False):\n",
    "    # info : [frame_num, prob, cls, label]\n",
    "    image = cv2.imread(image_name)\n",
    "    [height, width] = image.shape[:2]\n",
    "    font_size = 1\n",
    "    loc_w, loc_h = 0, 0\n",
    "    if dset == 'thumos14':\n",
    "        loc_w, loc_h = 5, 10\n",
    "        font_size = 0.4\n",
    "        font_thick = 1\n",
    "        step = 20\n",
    "    else:\n",
    "        loc_w, loc_h = 5, 30\n",
    "        font_size = 1.\n",
    "        font_thick = 2\n",
    "        step = 30\n",
    "    cv2.putText(image, \"Prediction\", (loc_w, loc_h), cv2.FONT_HERSHEY_DUPLEX, font_size, (255, 0, 0), font_thick)\n",
    "    cv2.putText(image, \"PRED: {} ({:.2f})\".format(info[2], info[1]), (loc_w, loc_h+step), cv2.FONT_HERSHEY_DUPLEX, font_size, (255, 0, 0), font_thick)\n",
    "    cv2.putText(image, \"GT: {}\".format(info[3]), (loc_w, loc_h + 2*step), cv2.FONT_HERSHEY_DUPLEX, font_size, (0, 0, 255), font_thick)\n",
    "    cv2.imwrite(image_name, image)"
   ]
  },
  {
   "cell_type": "code",
   "execution_count": 62,
   "metadata": {},
   "outputs": [],
   "source": [
    "def record_obs_videos(result_path, video_name, action_cls, obs_start_chunk, obs_end_chunk):\n",
    "    frm_path = '/opt/ml/demo_video_making/demo_vid/frames_for_obs_demo/' + video_name + '/frms'\n",
    "    img_path = '/opt/ml/demo_video_making/demo_vid/extracted_frames/' + video_name + '/imgs'\n",
    "\n",
    "    # copy frames to put text in copied frames\n",
    "    # subprocess.call('cp {}/* {}/'.format(img_path, frm_path), shell=True)\n",
    "\n",
    "    nframes = len(glob.glob(frm_path + '/*.png'))\n",
    "    all_videos_results = pd.read_csv(result_path)\n",
    "    prop_idx = prop_idx = (all_videos_results['vid name'] == video_name) & (obs_start_chunk <= all_videos_results['end_chunk']) & (all_videos_results['end_chunk'] <= obs_end_chunk)\n",
    "    this_video_results = all_videos_results[prop_idx][['end_chunk', 'prob', 'pred_cls', 'GT_cls']].values\n",
    "    for idx, info in enumerate(this_video_results):\n",
    "        if idx == 0:\n",
    "            subprocess.call('rm {}/*'.format(frm_path), shell=True)\n",
    "            for fl in obs_lst:\n",
    "                subprocess.call('cp {}/{} {}/'.format(img_path, fl, frm_path), shell=True)\n",
    "        f_start = (int(info[0]) * 32) + 1\n",
    "        f_end = (int(info[0])+1) * 32\n",
    "        prob = float(info[1])\n",
    "        cls = action_cls[int(info[2])]\n",
    "        label = action_cls[int(info[3])]\n",
    "        print(f'f_start:{f_start}, f_end:{f_end}')\n",
    "        for i in range(f_start, f_end+1):\n",
    "            image_name = frm_path + '/{:06d}.png'.format(i)\n",
    "            if os.path.exists(image_name):\n",
    "                put_text_for_obs(image_name, [i, prob, cls, label], dataset)\n",
    "\n",
    "    # record a video from texted frames\n",
    "    print('\\n\\n### Record a video from texted frames ###\\n\\n')\n",
    "    subprocess.call(\n",
    "        'ffmpeg -framerate 24 -start_number {} -i {}/%06d.png -c:v libx264 -profile:v high -level:v 4.0 -crf 18 -pix_fmt yuv420p -frames:v 256 {} '.\n",
    "        format(int(this_video_results[0][0]* 32)+1, frm_path, '/opt/ml/demo_video_making/demo_vid/result_demo_video/' + video_name+'.mp4'), shell=True) # 24fps짜리 비디오로 만들기"
   ]
  },
  {
   "cell_type": "code",
   "execution_count": 67,
   "metadata": {},
   "outputs": [],
   "source": [
    "def record_aa_videos(result_path, video_name, action_cls, aa_start_chunk, aa_end_chunk):\n",
    "    frm_path = '/opt/ml/demo_video_making/demo_vid/frames_for_aa_demo/'+ video_name +'/frms'\n",
    "    img_path = '/opt/ml/demo_video_making/demo_vid/extracted_frames/' + video_name + '/imgs'\n",
    "    all_videos_results = pd.read_csv(result_path)\n",
    "    prop_idx = (all_videos_results['vid name'] == video_name) & (aa_start_chunk <= all_videos_results['a1_end_chunk']) & (all_videos_results['a1_end_chunk'] <= aa_end_chunk)\n",
    "    this_video_results = all_videos_results[prop_idx][['a1_end_chunk', 'a1_prob', 'a1_pred_cls', 'a1_GT_cls','a2_end_chunk', 'a2_prob', 'a2_pred_cls', 'a2_GT_cls']].values\n",
    "    for idx, info in enumerate(this_video_results):\n",
    "        subprocess.call('rm {}/*'.format(frm_path), shell=True)\n",
    "        for fl in str_lst:\n",
    "            subprocess.call('cp {}/{} {}/'.format(img_path, fl, frm_path), shell=True)\n",
    "\n",
    "        a1_start = (int(info[0]) * 32) + 1\n",
    "        a1_end = (int(info[0])+1) * 32\n",
    "        a2_start = (int(info[4]) * 32) + 1\n",
    "        a2_end = (int(info[4])+1) * 32\n",
    "        a1_prob = float(info[1])\n",
    "        a2_prob = float(info[5])\n",
    "        a1_cls = action_cls[int(info[2])]\n",
    "        a2_cls = action_cls[int(info[6])]\n",
    "        a1_label = action_cls[int(info[3])]\n",
    "        a2_label = action_cls[int(info[7])]\n",
    "        for i in range(a1_start, a1_end+1):\n",
    "            image_name = frm_path + '/{:06d}.png'.format(i)\n",
    "            if os.path.exists(image_name):\n",
    "                put_text(image_name, [i, a1_prob, a1_cls, a1_label],dataset)\n",
    "            else:\n",
    "                print('### NO ###')\n",
    "        for i in range(a2_start, a2_end+1):\n",
    "            image_name = frm_path + '/{:06d}.png'.format(i)\n",
    "            if os.path.exists(image_name):\n",
    "                put_text(image_name, [i, a2_prob, a2_cls, a2_label], dataset)\n",
    "    \n",
    "        print('\\n\\n### Record a video from texted frames ###\\n\\n')\n",
    "        subprocess.call(\n",
    "            'ffmpeg -framerate 24 -start_number {} -i {}/%06d.png -c:v libx264 -profile:v high -level:v 4.0 -crf 18 -pix_fmt yuv420p -frames:v 64 {} '.\n",
    "            format(a1_start, frm_path, '/opt/ml/demo_video_making/demo_vid/result_demo_video/aa/' + video_name+'_'+str(idx)+'.mp4'), shell=True)"
   ]
  },
  {
   "cell_type": "code",
   "execution_count": 91,
   "metadata": {},
   "outputs": [
    {
     "name": "stdout",
     "output_type": "stream",
     "text": [
      "### VIDEO NAME ### : 24_ep4\n",
      "\n",
      "### extract frames from the video... ###\n",
      "\n"
     ]
    },
    {
     "name": "stderr",
     "output_type": "stream",
     "text": [
      "ffmpeg version 4.3.1 Copyright (c) 2000-2020 the FFmpeg developers\n",
      "  built with gcc 7.5.0 (crosstool-NG 1.24.0.131_87df0e6_dirty)\n",
      "  configuration: --prefix=/opt/conda --cc=/home/conda/feedstock_root/build_artifacts/ffmpeg_1602879523915/_build_env/bin/x86_64-conda-linux-gnu-cc --disable-doc --disable-openssl --enable-avresample --enable-gnutls --enable-gpl --enable-hardcoded-tables --enable-libfreetype --enable-libopenh264 --enable-libx264 --enable-pic --enable-pthreads --enable-shared --enable-static --enable-version3 --enable-zlib --enable-libmp3lame\n",
      "  libavutil      56. 51.100 / 56. 51.100\n",
      "  libavcodec     58. 91.100 / 58. 91.100\n",
      "  libavformat    58. 45.100 / 58. 45.100\n",
      "  libavdevice    58. 10.100 / 58. 10.100\n",
      "  libavfilter     7. 85.100 /  7. 85.100\n",
      "  libavresample   4.  0.  0 /  4.  0.  0\n",
      "  libswscale      5.  7.100 /  5.  7.100\n",
      "  libswresample   3.  7.100 /  3.  7.100\n",
      "  libpostproc    55.  7.100 / 55.  7.100\n",
      "Input #0, matroska,webm, from '/opt/ml/demo_video_making/data_samples/tvseries/24_ep4.mkv':\n",
      "  Metadata:\n",
      "    CREATION_TIME   : 2016-08-31T14:22:46Z\n",
      "    ENCODER         : Lavf55.12.0\n",
      "  Duration: 00:41:32.96, start: 0.000000, bitrate: 1247 kb/s\n",
      "    Stream #0:0: Video: vp8, yuv420p(progressive), 710x576, SAR 27:19 DAR 1065:608, 25 fps, 25 tbr, 1k tbn, 1k tbc (default)\n",
      "Stream mapping:\n",
      "  Stream #0:0 -> #0:0 (vp8 (native) -> png (native))\n",
      "Press [q] to stop, [?] for help\n",
      "Output #0, image2, to '/opt/ml/demo_video_making/demo_vid/extracted_frames/24_ep4/imgs/%06d.png':\n",
      "  Metadata:\n",
      "    encoder         : Lavf58.45.100\n",
      "    Stream #0:0: Video: png, rgb24, 710x576 [SAR 27:19 DAR 1065:608], q=2-31, 200 kb/s, 24 fps, 24 tbn, 24 tbc (default)\n",
      "    Metadata:\n",
      "      encoder         : Lavc58.91.100 png\n",
      "frame=59833 fps=178 q=-0.0 Lsize=N/A time=00:41:33.04 bitrate=N/A dup=0 drop=2491 speed=7.43x    \n",
      "video:17335173kB audio:0kB subtitle:0kB other streams:0kB global headers:0kB muxing overhead: unknown\n"
     ]
    }
   ],
   "source": [
    "dataset = 'tvseries'\n",
    "alpha = 0.75\n",
    "vid_type='video'\n",
    "obs_start = 804\n",
    "obs_end = 811\n",
    "aa_start = 811\n",
    "aa_end = 813\n",
    "str_lst = [str(i).zfill(6)+'.png' for i in range(aa_start * 32, (aa_end * 32)+1)]\n",
    "obs_lst = [str(i).zfill(6)+'.png' for i in range(obs_start * 32, (obs_end * 32)+1)]\n",
    "\n",
    "if dataset == 'thumos14':\n",
    "    video_dir = '/opt/ml/demo_video_making/data_samples/thumos/'\n",
    "    if alpha == 0.75:\n",
    "        result_path = '/opt/ml/demo_video_making/demo_vid/result_csv/test_alpha0.75_tsm_thumos14.csv'\n",
    "    else:\n",
    "        result_path = '/opt/ml/demo_video_making/demo_vid/result_csv/test_alpha1.0_tsm_thumos14.csv'\n",
    "    video_lst = ['video_test_0000026.mp4','video_test_0000505.mp4'] # \n",
    "    print('\\nMake demo video about {}\\n'.format(video_lst[0]))\n",
    "    act_cls = thumos14_cls_name\n",
    "else:\n",
    "    video_dir = '/opt/ml/demo_video_making/data_samples/tvseries/'\n",
    "    if alpha == 0.75:\n",
    "        result_path = '/opt/ml/demo_video_making/demo_vid/result_csv/test_alpha0.75_tsm_tvseries.csv'\n",
    "    else:\n",
    "        result_path = '/opt/ml/demo_video_making/demo_vid/result_csv/test_alpha1.0_tsm_tvseries.csv'\n",
    "    video_lst = ['24_ep4.mkv']\n",
    "    act_cls = tvseries_cls_name\n",
    "\n",
    "# for idx, video_name in enumerate(video_lst):\n",
    "video_name = video_lst[0]\n",
    "video_name = video_name[:-4] # 확장자 뺀 이름값만 추출\n",
    "if os.path.isdir('result_demo_video/' + video_name): # result_vid 안에 비디오 이름으로 된 디렉터리 있으면\n",
    "    shutil.rmtree('result_demo_video/' + video_name, ignore_errors=True) # 싹다제거\n",
    "print(f'### VIDEO NAME ### : {video_name}')\n",
    "os.makedirs(os.path.join('/opt/ml/demo_video_making/demo_vid/frames_for_aa_demo',video_name,'frms'), exist_ok=True)\n",
    "os.makedirs(os.path.join('/opt/ml/demo_video_making/demo_vid/frames_for_obs_demo',video_name,'frms'), exist_ok=True)\n",
    "os.makedirs(os.path.join('/opt/ml/demo_video_making/demo_vid/extracted_frames',video_name,'imgs'), exist_ok=True)\n",
    "# os.makedirs(os.path.join('/opt/ml/demo_video_making/demo_vid/frames_for_aa_demo'), exist_ok=True)\n",
    "print('\\n### extract frames from the video... ###\\n')\n",
    "extract_frames(video_dir + video_name, dataset) # video 이름으로 된 폴더 만들고 그안에서 프레임 추출"
   ]
  },
  {
   "cell_type": "code",
   "execution_count": 92,
   "metadata": {},
   "outputs": [
    {
     "name": "stderr",
     "output_type": "stream",
     "text": [
      "rm: cannot remove '/opt/ml/demo_video_making/demo_vid/frames_for_obs_demo/24_ep4/frms/*': No such file or directory\n"
     ]
    },
    {
     "name": "stdout",
     "output_type": "stream",
     "text": [
      "f_start:25729, f_end:25760\n",
      "f_start:25761, f_end:25792\n",
      "f_start:25793, f_end:25824\n",
      "f_start:25825, f_end:25856\n",
      "f_start:25857, f_end:25888\n",
      "f_start:25889, f_end:25920\n",
      "f_start:25921, f_end:25952\n",
      "f_start:25953, f_end:25984\n",
      "\n",
      "\n",
      "### Record a video from texted frames ###\n",
      "\n",
      "\n"
     ]
    },
    {
     "name": "stderr",
     "output_type": "stream",
     "text": [
      "ffmpeg version 4.3.1 Copyright (c) 2000-2020 the FFmpeg developers\n",
      "  built with gcc 7.5.0 (crosstool-NG 1.24.0.131_87df0e6_dirty)\n",
      "  configuration: --prefix=/opt/conda --cc=/home/conda/feedstock_root/build_artifacts/ffmpeg_1602879523915/_build_env/bin/x86_64-conda-linux-gnu-cc --disable-doc --disable-openssl --enable-avresample --enable-gnutls --enable-gpl --enable-hardcoded-tables --enable-libfreetype --enable-libopenh264 --enable-libx264 --enable-pic --enable-pthreads --enable-shared --enable-static --enable-version3 --enable-zlib --enable-libmp3lame\n",
      "  libavutil      56. 51.100 / 56. 51.100\n",
      "  libavcodec     58. 91.100 / 58. 91.100\n",
      "  libavformat    58. 45.100 / 58. 45.100\n",
      "  libavdevice    58. 10.100 / 58. 10.100\n",
      "  libavfilter     7. 85.100 /  7. 85.100\n",
      "  libavresample   4.  0.  0 /  4.  0.  0\n",
      "  libswscale      5.  7.100 /  5.  7.100\n",
      "  libswresample   3.  7.100 /  3.  7.100\n",
      "  libpostproc    55.  7.100 / 55.  7.100\n",
      "Input #0, image2, from '/opt/ml/demo_video_making/demo_vid/frames_for_obs_demo/24_ep4/frms/%06d.png':\n",
      "  Duration: 00:00:09.33, start: 0.000000, bitrate: N/A\n",
      "    Stream #0:0: Video: png, rgb24(pc), 710x576, 24 fps, 24 tbr, 24 tbn, 24 tbc\n",
      "Stream mapping:\n",
      "  Stream #0:0 -> #0:0 (png (native) -> h264 (libx264))\n",
      "Press [q] to stop, [?] for help\n",
      "[libx264 @ 0x556a4dbde500] using cpu capabilities: MMX2 SSE2Fast SSSE3 SSE4.2 AVX FMA3 BMI2 AVX2\n",
      "[libx264 @ 0x556a4dbde500] profile High, level 4.0\n",
      "[libx264 @ 0x556a4dbde500] 264 - core 152 - H.264/MPEG-4 AVC codec - Copyleft 2003-2017 - http://www.videolan.org/x264.html - options: cabac=1 ref=3 deblock=1:0:0 analyse=0x3:0x113 me=hex subme=7 psy=1 psy_rd=1.00:0.00 mixed_ref=1 me_range=16 chroma_me=1 trellis=1 8x8dct=1 cqm=0 deadzone=21,11 fast_pskip=1 chroma_qp_offset=-2 threads=12 lookahead_threads=2 sliced_threads=0 nr=0 decimate=1 interlaced=0 bluray_compat=0 constrained_intra=0 bframes=3 b_pyramid=2 b_adapt=1 b_bias=0 direct=1 weightb=1 open_gop=0 weightp=2 keyint=250 keyint_min=24 scenecut=40 intra_refresh=0 rc_lookahead=40 rc=crf mbtree=1 crf=18.0 qcomp=0.60 qpmin=0 qpmax=69 qpstep=4 ip_ratio=1.40 aq=1:1.00\n",
      "Output #0, mp4, to '/opt/ml/demo_video_making/demo_vid/result_demo_video/24_ep4.mp4':\n",
      "  Metadata:\n",
      "    encoder         : Lavf58.45.100\n",
      "    Stream #0:0: Video: h264 (libx264) (avc1 / 0x31637661), yuv420p, 710x576, q=-1--1, 24 fps, 12288 tbn, 24 tbc\n",
      "    Metadata:\n",
      "      encoder         : Lavc58.91.100 libx264\n",
      "    Side data:\n",
      "      cpb: bitrate max/min/avg: 0/0/0 buffer size: 0 vbv_delay: N/A\n",
      "frame=  224 fps=112 q=-1.0 Lsize=    1316kB time=00:00:09.20 bitrate=1170.8kbits/s speed=4.62x    \n",
      "video:1313kB audio:0kB subtitle:0kB other streams:0kB global headers:0kB muxing overhead: 0.262780%\n",
      "[libx264 @ 0x556a4dbde500] frame I:2     Avg QP:14.13  size: 24972\n",
      "[libx264 @ 0x556a4dbde500] frame P:60    Avg QP:17.11  size: 10136\n",
      "[libx264 @ 0x556a4dbde500] frame B:162   Avg QP:19.46  size:  4230\n",
      "[libx264 @ 0x556a4dbde500] consecutive B-frames:  2.2%  3.6%  1.3% 92.9%\n",
      "[libx264 @ 0x556a4dbde500] mb I  I16..4: 25.3% 56.5% 18.1%\n",
      "[libx264 @ 0x556a4dbde500] mb P  I16..4:  4.9% 15.8%  3.0%  P16..4: 26.3% 11.7%  5.3%  0.0%  0.0%    skip:32.9%\n",
      "[libx264 @ 0x556a4dbde500] mb B  I16..4:  0.9%  1.7%  0.3%  B16..8: 37.2%  5.9%  1.0%  direct: 5.1%  skip:47.9%  L0:49.0% L1:45.5% BI: 5.4%\n",
      "[libx264 @ 0x556a4dbde500] 8x8 transform intra:63.8% inter:66.7%\n",
      "[libx264 @ 0x556a4dbde500] coded y,uvDC,uvAC intra: 52.6% 50.5% 20.1% inter: 18.0% 14.5% 0.8%\n",
      "[libx264 @ 0x556a4dbde500] i16 v,h,dc,p: 51% 18% 19% 13%\n",
      "[libx264 @ 0x556a4dbde500] i8 v,h,dc,ddl,ddr,vr,hd,vl,hu: 29% 13% 36%  3%  3%  5%  2%  5%  4%\n",
      "[libx264 @ 0x556a4dbde500] i4 v,h,dc,ddl,ddr,vr,hd,vl,hu: 42% 15% 18%  4%  4%  7%  3%  5%  2%\n",
      "[libx264 @ 0x556a4dbde500] i8c dc,h,v,p: 57% 14% 24%  4%\n",
      "[libx264 @ 0x556a4dbde500] Weighted P-Frames: Y:0.0% UV:0.0%\n",
      "[libx264 @ 0x556a4dbde500] ref P L0: 57.2% 12.9% 20.5%  9.5%\n",
      "[libx264 @ 0x556a4dbde500] ref B L0: 88.2%  9.3%  2.5%\n",
      "[libx264 @ 0x556a4dbde500] ref B L1: 94.3%  5.7%\n",
      "[libx264 @ 0x556a4dbde500] kb/s:1151.50\n"
     ]
    }
   ],
   "source": [
    "if dataset == 'thumos14':\n",
    "    record_obs_videos(result_path, video_name, thumos14_cls_name, obs_start, obs_end)\n",
    "else:\n",
    "    record_obs_videos(result_path, video_name, tvseries_cls_name, obs_start, obs_end)"
   ]
  },
  {
   "cell_type": "code",
   "execution_count": 93,
   "metadata": {},
   "outputs": [
    {
     "name": "stderr",
     "output_type": "stream",
     "text": [
      "rm: cannot remove '/opt/ml/demo_video_making/demo_vid/frames_for_aa_demo/24_ep4/frms/*': No such file or directory\n"
     ]
    },
    {
     "name": "stdout",
     "output_type": "stream",
     "text": [
      "\n",
      "\n",
      "### Record a video from texted frames ###\n",
      "\n",
      "\n"
     ]
    },
    {
     "name": "stderr",
     "output_type": "stream",
     "text": [
      "ffmpeg version 4.3.1 Copyright (c) 2000-2020 the FFmpeg developers\n",
      "  built with gcc 7.5.0 (crosstool-NG 1.24.0.131_87df0e6_dirty)\n",
      "  configuration: --prefix=/opt/conda --cc=/home/conda/feedstock_root/build_artifacts/ffmpeg_1602879523915/_build_env/bin/x86_64-conda-linux-gnu-cc --disable-doc --disable-openssl --enable-avresample --enable-gnutls --enable-gpl --enable-hardcoded-tables --enable-libfreetype --enable-libopenh264 --enable-libx264 --enable-pic --enable-pthreads --enable-shared --enable-static --enable-version3 --enable-zlib --enable-libmp3lame\n",
      "  libavutil      56. 51.100 / 56. 51.100\n",
      "  libavcodec     58. 91.100 / 58. 91.100\n",
      "  libavformat    58. 45.100 / 58. 45.100\n",
      "  libavdevice    58. 10.100 / 58. 10.100\n",
      "  libavfilter     7. 85.100 /  7. 85.100\n",
      "  libavresample   4.  0.  0 /  4.  0.  0\n",
      "  libswscale      5.  7.100 /  5.  7.100\n",
      "  libswresample   3.  7.100 /  3.  7.100\n",
      "  libpostproc    55.  7.100 / 55.  7.100\n",
      "Input #0, image2, from '/opt/ml/demo_video_making/demo_vid/frames_for_aa_demo/24_ep4/frms/%06d.png':\n",
      "  Duration: 00:00:02.67, start: 0.000000, bitrate: N/A\n",
      "    Stream #0:0: Video: png, rgb24(pc), 710x576, 24 fps, 24 tbr, 24 tbn, 24 tbc\n",
      "Stream mapping:\n",
      "  Stream #0:0 -> #0:0 (png (native) -> h264 (libx264))\n",
      "Press [q] to stop, [?] for help\n",
      "[libx264 @ 0x563675178880] using cpu capabilities: MMX2 SSE2Fast SSSE3 SSE4.2 AVX FMA3 BMI2 AVX2\n",
      "[libx264 @ 0x563675178880] profile High, level 4.0\n",
      "[libx264 @ 0x563675178880] 264 - core 152 - H.264/MPEG-4 AVC codec - Copyleft 2003-2017 - http://www.videolan.org/x264.html - options: cabac=1 ref=3 deblock=1:0:0 analyse=0x3:0x113 me=hex subme=7 psy=1 psy_rd=1.00:0.00 mixed_ref=1 me_range=16 chroma_me=1 trellis=1 8x8dct=1 cqm=0 deadzone=21,11 fast_pskip=1 chroma_qp_offset=-2 threads=12 lookahead_threads=2 sliced_threads=0 nr=0 decimate=1 interlaced=0 bluray_compat=0 constrained_intra=0 bframes=3 b_pyramid=2 b_adapt=1 b_bias=0 direct=1 weightb=1 open_gop=0 weightp=2 keyint=250 keyint_min=24 scenecut=40 intra_refresh=0 rc_lookahead=40 rc=crf mbtree=1 crf=18.0 qcomp=0.60 qpmin=0 qpmax=69 qpstep=4 ip_ratio=1.40 aq=1:1.00\n",
      "Output #0, mp4, to '/opt/ml/demo_video_making/demo_vid/result_demo_video/aa/24_ep4_0.mp4':\n",
      "  Metadata:\n",
      "    encoder         : Lavf58.45.100\n",
      "    Stream #0:0: Video: h264 (libx264) (avc1 / 0x31637661), yuv420p, 710x576, q=-1--1, 24 fps, 12288 tbn, 24 tbc\n",
      "    Metadata:\n",
      "      encoder         : Lavc58.91.100 libx264\n",
      "    Side data:\n",
      "      cpb: bitrate max/min/avg: 0/0/0 buffer size: 0 vbv_delay: N/A\n",
      "frame=   64 fps=0.0 q=-1.0 Lsize=     601kB time=00:00:02.54 bitrate=1935.6kbits/s speed=3.12x    \n",
      "video:599kB audio:0kB subtitle:0kB other streams:0kB global headers:0kB muxing overhead: 0.262156%\n",
      "[libx264 @ 0x563675178880] frame I:1     Avg QP:16.44  size: 21493\n",
      "[libx264 @ 0x563675178880] frame P:17    Avg QP:17.23  size: 14042\n",
      "[libx264 @ 0x563675178880] frame B:46    Avg QP:18.62  size:  7663\n",
      "[libx264 @ 0x563675178880] consecutive B-frames:  3.1%  3.1%  0.0% 93.8%\n",
      "[libx264 @ 0x563675178880] mb I  I16..4: 19.9% 61.3% 18.8%\n",
      "[libx264 @ 0x563675178880] mb P  I16..4:  8.7% 26.0%  5.2%  P16..4: 35.0% 12.6%  4.6%  0.0%  0.0%    skip: 8.0%\n",
      "[libx264 @ 0x563675178880] mb B  I16..4:  2.3%  4.1%  0.6%  B16..8: 48.6% 11.4%  1.7%  direct: 9.1%  skip:22.2%  L0:55.7% L1:38.7% BI: 5.6%\n",
      "[libx264 @ 0x563675178880] 8x8 transform intra:62.7% inter:65.1%\n",
      "[libx264 @ 0x563675178880] coded y,uvDC,uvAC intra: 58.1% 49.6% 15.4% inter: 30.4% 25.2% 1.1%\n",
      "[libx264 @ 0x563675178880] i16 v,h,dc,p: 41% 21% 24% 15%\n",
      "[libx264 @ 0x563675178880] i8 v,h,dc,ddl,ddr,vr,hd,vl,hu: 26% 14% 35%  3%  3%  6%  3%  6%  4%\n",
      "[libx264 @ 0x563675178880] i4 v,h,dc,ddl,ddr,vr,hd,vl,hu: 35% 16% 23%  4%  5%  7%  3%  5%  2%\n",
      "[libx264 @ 0x563675178880] i8c dc,h,v,p: 59% 17% 21%  3%\n",
      "[libx264 @ 0x563675178880] Weighted P-Frames: Y:0.0% UV:0.0%\n",
      "[libx264 @ 0x563675178880] ref P L0: 57.4%  8.9% 21.3% 12.4%\n",
      "[libx264 @ 0x563675178880] ref B L0: 85.5% 11.5%  3.1%\n",
      "[libx264 @ 0x563675178880] ref B L1: 94.1%  5.9%\n",
      "[libx264 @ 0x563675178880] kb/s:1838.10\n"
     ]
    },
    {
     "name": "stdout",
     "output_type": "stream",
     "text": [
      "\n",
      "\n",
      "### Record a video from texted frames ###\n",
      "\n",
      "\n"
     ]
    },
    {
     "name": "stderr",
     "output_type": "stream",
     "text": [
      "ffmpeg version 4.3.1 Copyright (c) 2000-2020 the FFmpeg developers\n",
      "  built with gcc 7.5.0 (crosstool-NG 1.24.0.131_87df0e6_dirty)\n",
      "  configuration: --prefix=/opt/conda --cc=/home/conda/feedstock_root/build_artifacts/ffmpeg_1602879523915/_build_env/bin/x86_64-conda-linux-gnu-cc --disable-doc --disable-openssl --enable-avresample --enable-gnutls --enable-gpl --enable-hardcoded-tables --enable-libfreetype --enable-libopenh264 --enable-libx264 --enable-pic --enable-pthreads --enable-shared --enable-static --enable-version3 --enable-zlib --enable-libmp3lame\n",
      "  libavutil      56. 51.100 / 56. 51.100\n",
      "  libavcodec     58. 91.100 / 58. 91.100\n",
      "  libavformat    58. 45.100 / 58. 45.100\n",
      "  libavdevice    58. 10.100 / 58. 10.100\n",
      "  libavfilter     7. 85.100 /  7. 85.100\n",
      "  libavresample   4.  0.  0 /  4.  0.  0\n",
      "  libswscale      5.  7.100 /  5.  7.100\n",
      "  libswresample   3.  7.100 /  3.  7.100\n",
      "  libpostproc    55.  7.100 / 55.  7.100\n",
      "Input #0, image2, from '/opt/ml/demo_video_making/demo_vid/frames_for_aa_demo/24_ep4/frms/%06d.png':\n",
      "  Duration: 00:00:01.33, start: 0.000000, bitrate: N/A\n",
      "    Stream #0:0: Video: png, rgb24(pc), 710x576, 24 fps, 24 tbr, 24 tbn, 24 tbc\n",
      "Stream mapping:\n",
      "  Stream #0:0 -> #0:0 (png (native) -> h264 (libx264))\n",
      "Press [q] to stop, [?] for help\n",
      "[libx264 @ 0x561ac304e300] using cpu capabilities: MMX2 SSE2Fast SSSE3 SSE4.2 AVX FMA3 BMI2 AVX2\n",
      "[libx264 @ 0x561ac304e300] profile High, level 4.0\n",
      "[libx264 @ 0x561ac304e300] 264 - core 152 - H.264/MPEG-4 AVC codec - Copyleft 2003-2017 - http://www.videolan.org/x264.html - options: cabac=1 ref=3 deblock=1:0:0 analyse=0x3:0x113 me=hex subme=7 psy=1 psy_rd=1.00:0.00 mixed_ref=1 me_range=16 chroma_me=1 trellis=1 8x8dct=1 cqm=0 deadzone=21,11 fast_pskip=1 chroma_qp_offset=-2 threads=12 lookahead_threads=2 sliced_threads=0 nr=0 decimate=1 interlaced=0 bluray_compat=0 constrained_intra=0 bframes=3 b_pyramid=2 b_adapt=1 b_bias=0 direct=1 weightb=1 open_gop=0 weightp=2 keyint=250 keyint_min=24 scenecut=40 intra_refresh=0 rc_lookahead=40 rc=crf mbtree=1 crf=18.0 qcomp=0.60 qpmin=0 qpmax=69 qpstep=4 ip_ratio=1.40 aq=1:1.00\n",
      "Output #0, mp4, to '/opt/ml/demo_video_making/demo_vid/result_demo_video/aa/24_ep4_1.mp4':\n",
      "  Metadata:\n",
      "    encoder         : Lavf58.45.100\n",
      "    Stream #0:0: Video: h264 (libx264) (avc1 / 0x31637661), yuv420p, 710x576, q=-1--1, 24 fps, 12288 tbn, 24 tbc\n",
      "    Metadata:\n",
      "      encoder         : Lavc58.91.100 libx264\n",
      "    Side data:\n",
      "      cpb: bitrate max/min/avg: 0/0/0 buffer size: 0 vbv_delay: N/A\n",
      "frame=   32 fps=0.0 q=-1.0 Lsize=     324kB time=00:00:01.20 bitrate=2197.5kbits/s speed=2.36x    \n",
      "video:323kB audio:0kB subtitle:0kB other streams:0kB global headers:0kB muxing overhead: 0.367675%\n",
      "[libx264 @ 0x561ac304e300] frame I:1     Avg QP:16.91  size: 21095\n",
      "[libx264 @ 0x561ac304e300] frame P:8     Avg QP:17.40  size: 14408\n",
      "[libx264 @ 0x561ac304e300] frame B:23    Avg QP:18.65  size:  8422\n",
      "[libx264 @ 0x561ac304e300] consecutive B-frames:  3.1%  0.0%  9.4% 87.5%\n",
      "[libx264 @ 0x561ac304e300] mb I  I16..4: 22.5% 61.9% 15.6%\n",
      "[libx264 @ 0x561ac304e300] mb P  I16..4:  8.3% 27.8%  5.5%  P16..4: 33.3% 13.5%  4.6%  0.0%  0.0%    skip: 7.0%\n",
      "[libx264 @ 0x561ac304e300] mb B  I16..4:  2.3%  3.7%  0.6%  B16..8: 49.8% 11.8%  1.7%  direct:10.8%  skip:19.3%  L0:52.7% L1:41.9% BI: 5.4%\n",
      "[libx264 @ 0x561ac304e300] 8x8 transform intra:63.0% inter:66.0%\n",
      "[libx264 @ 0x561ac304e300] coded y,uvDC,uvAC intra: 60.2% 56.0% 18.3% inter: 33.6% 28.1% 1.3%\n",
      "[libx264 @ 0x561ac304e300] i16 v,h,dc,p: 41% 19% 23% 17%\n",
      "[libx264 @ 0x561ac304e300] i8 v,h,dc,ddl,ddr,vr,hd,vl,hu: 27% 14% 33%  4%  3%  6%  3%  6%  4%\n",
      "[libx264 @ 0x561ac304e300] i4 v,h,dc,ddl,ddr,vr,hd,vl,hu: 40% 16% 20%  4%  4%  7%  3%  5%  2%\n",
      "[libx264 @ 0x561ac304e300] i8c dc,h,v,p: 55% 18% 24%  4%\n",
      "[libx264 @ 0x561ac304e300] Weighted P-Frames: Y:0.0% UV:0.0%\n",
      "[libx264 @ 0x561ac304e300] ref P L0: 61.3%  8.5% 19.7% 10.5%\n",
      "[libx264 @ 0x561ac304e300] ref B L0: 88.2%  9.5%  2.4%\n",
      "[libx264 @ 0x561ac304e300] ref B L1: 94.5%  5.5%\n",
      "[libx264 @ 0x561ac304e300] kb/s:1980.31\n"
     ]
    },
    {
     "name": "stdout",
     "output_type": "stream",
     "text": [
      "### NO ###\n",
      "### NO ###\n",
      "### NO ###\n",
      "### NO ###\n",
      "### NO ###\n",
      "### NO ###\n",
      "### NO ###\n",
      "### NO ###\n",
      "### NO ###\n",
      "### NO ###\n",
      "### NO ###\n",
      "### NO ###\n",
      "### NO ###\n",
      "### NO ###\n",
      "### NO ###\n",
      "### NO ###\n",
      "### NO ###\n",
      "### NO ###\n",
      "### NO ###\n",
      "### NO ###\n",
      "### NO ###\n",
      "### NO ###\n",
      "### NO ###\n",
      "### NO ###\n",
      "### NO ###\n",
      "### NO ###\n",
      "### NO ###\n",
      "### NO ###\n",
      "### NO ###\n",
      "### NO ###\n",
      "### NO ###\n",
      "### NO ###\n",
      "\n",
      "\n",
      "### Record a video from texted frames ###\n",
      "\n",
      "\n"
     ]
    },
    {
     "name": "stderr",
     "output_type": "stream",
     "text": [
      "ffmpeg version 4.3.1 Copyright (c) 2000-2020 the FFmpeg developers\n",
      "  built with gcc 7.5.0 (crosstool-NG 1.24.0.131_87df0e6_dirty)\n",
      "  configuration: --prefix=/opt/conda --cc=/home/conda/feedstock_root/build_artifacts/ffmpeg_1602879523915/_build_env/bin/x86_64-conda-linux-gnu-cc --disable-doc --disable-openssl --enable-avresample --enable-gnutls --enable-gpl --enable-hardcoded-tables --enable-libfreetype --enable-libopenh264 --enable-libx264 --enable-pic --enable-pthreads --enable-shared --enable-static --enable-version3 --enable-zlib --enable-libmp3lame\n",
      "  libavutil      56. 51.100 / 56. 51.100\n",
      "  libavcodec     58. 91.100 / 58. 91.100\n",
      "  libavformat    58. 45.100 / 58. 45.100\n",
      "  libavdevice    58. 10.100 / 58. 10.100\n",
      "  libavfilter     7. 85.100 /  7. 85.100\n",
      "  libavresample   4.  0.  0 /  4.  0.  0\n",
      "  libswscale      5.  7.100 /  5.  7.100\n",
      "  libswresample   3.  7.100 /  3.  7.100\n",
      "  libpostproc    55.  7.100 / 55.  7.100\n",
      "[image2 @ 0x5610d8be1180] Could find no file with path '/opt/ml/demo_video_making/demo_vid/frames_for_aa_demo/24_ep4/frms/%06d.png' and index in the range 26017-26021\n",
      "/opt/ml/demo_video_making/demo_vid/frames_for_aa_demo/24_ep4/frms/%06d.png: No such file or directory\n"
     ]
    }
   ],
   "source": [
    "if dataset == 'thumos14':\n",
    "    record_aa_videos(result_path, video_name, thumos14_cls_name, aa_start, aa_end)\n",
    "else:\n",
    "    record_aa_videos(result_path, video_name, tvseries_cls_name, aa_start, aa_end)"
   ]
  },
  {
   "cell_type": "code",
   "execution_count": null,
   "metadata": {},
   "outputs": [],
   "source": []
  }
 ],
 "metadata": {
  "interpreter": {
   "hash": "d4d1e4263499bec80672ea0156c357c1ee493ec2b1c70f0acce89fc37c4a6abe"
  },
  "kernelspec": {
   "display_name": "Python 3.8.5 ('base')",
   "language": "python",
   "name": "python3"
  },
  "language_info": {
   "codemirror_mode": {
    "name": "ipython",
    "version": 3
   },
   "file_extension": ".py",
   "mimetype": "text/x-python",
   "name": "python",
   "nbconvert_exporter": "python",
   "pygments_lexer": "ipython3",
   "version": "3.8.5"
  },
  "orig_nbformat": 4
 },
 "nbformat": 4,
 "nbformat_minor": 2
}
